<?xml version="1.0"?><svg width="793.701" height="1122.52" xmlns="http://www.w3.org/2000/svg">
 <title>eagle</title>

 <g>
  <title>Layer 1</title>
  <path d="m92.973297,737.45813c5.399803,-4.056396 13.498703,-9.736877 24.2957,-8.925354c10.798004,0.811462 35.091995,2.433411 44.091003,0.811462c8.996994,-1.622986 16.194992,0.811523 18.893997,-5.678345c2.701004,-6.490845 3.600006,-27.586548 10.798004,-35.698303c7.197998,-8.113892 26.994995,-17.038208 29.694,-25.1521c2.701004,-8.112854 3.598999,-11.357788 0,-19.471619c-3.598999,-8.112854 -11.697998,-15.415222 -23.393997,-20.284241c-11.697998,-4.866821 -22.49501,-8.111755 -22.49501,-8.111755c0,0 -23.395996,19.471619 -24.293991,24.338501c-0.901001,4.868958 1.797989,9.73584 -3.600006,12.171326c-5.399994,2.433472 -14.399002,-4.868896 -16.196991,-17.850769c-1.80101,-12.980713 4.498993,-28.394836 3.598999,-37.321289c-0.900009,-8.924316 -7.198006,-17.036072 -1.80101,-25.962524c5.400009,-8.924377 17.999008,-22.716614 27.896011,-29.207458c9.896988,-6.490906 26.992996,-7.302429 29.694,-15.414124c2.69899,-8.11499 -17.098007,-38.944336 -17.098007,-46.246735c0,-7.302399 2.701004,-21.094635 -3.598999,-32.452362c-6.298004,-11.359894 -13.496994,-35.699432 -40.492004,-51.114655c-26.992996,-15.415222 -45.889,-21.905029 -50.388496,-33.263855c-4.499496,-11.358795 -0.8983,-11.358795 4.499496,-14.603699c5.399803,-3.246002 -14.396797,-21.906128 -20.694897,-39.755829c-6.300098,-17.848663 -17.097698,-53.546982 -12.598198,-56.792969c4.499496,-3.244919 17.995998,0 20.694897,6.490906c2.700905,6.490906 13.498505,46.245636 13.498505,46.245636c0,0 -2.698906,-30.018921 1.798599,-38.943268c4.499496,-8.925385 9.8993,-17.849686 15.297096,-15.415192c5.400002,2.433411 2.699005,55.169952 2.699005,55.169952c0,0 5.399994,-12.170288 8.998993,-19.471619c3.599007,-7.302399 6.298004,-13.793304 10.797005,-9.735809c4.5,4.056427 0.901001,42.999664 0.901001,42.999664c0,0 7.197998,-9.73584 12.595993,-12.16922c5.400009,-2.434509 8.098999,-4.057495 11.697998,1.621918c3.598999,5.679382 2.699005,12.981781 2.699005,12.981781c0,0 2.701004,-8.113892 8.999008,-8.113892c6.297989,0 14.396988,2.434509 11.697998,8.925385c-2.701004,6.489838 24.293991,0.810425 22.492996,12.16925c-1.798004,11.358795 0,21.906128 7.199005,21.906128c7.197998,0 11.696991,8.924286 26.093994,5.679413c8.998993,4.867889 -4.496994,34.88681 1.800995,30.830414c6.298004,-4.056427 20.695007,-7.302399 26.095001,1.622986c5.397003,8.924316 -7.19899,19.471619 0,27.584442c7.197998,8.113922 0,15.416321 10.796997,21.907196c10.798004,6.489838 11.697998,1.62085 14.397003,16.225647c2.699005,14.603729 2.699005,21.093536 7.197998,26.774048c4.5,5.679382 9.89801,9.735809 8.997009,21.906097c-0.89801,12.16922 -8.997009,23.528046 1.800995,21.90506c10.798004,-1.621948 15.296997,-11.357727 23.394012,-15.415222c8.097992,-4.056427 9.898987,-4.866852 20.696991,-12.16925c10.796997,-7.302399 12.596008,-17.038208 18.895996,-19.471619c6.298004,-2.435577 11.696014,-1.624084 20.695007,-4.868988c8.997009,-3.244904 17.996002,-10.547302 22.494995,-13.793274c4.497986,-3.244934 4.497986,-4.866852 12.596985,-11.356689c8.098022,-6.490875 16.197021,-10.54837 21.595001,-21.095703c5.399017,-10.547302 4.499023,-11.357727 10.797028,-26.772949c6.299988,-15.415222 4.5,-20.28418 8.098999,-26.773987c3.598999,-6.490936 3.598999,-12.170319 9.896973,-17.849731c6.300018,-5.679413 11.698029,-12.170288 12.598999,-6.490875c0.900024,5.679352 0.900024,13.793274 0.900024,18.661194c0,4.867889 8.098999,-7.302429 15.296997,-19.471619c7.197998,-12.170349 3.598999,-13.793335 6.298004,-24.340637c2.698975,-10.547302 0,-17.848633 0.899994,-30.018921c0.898987,-12.170319 2.699005,-12.980743 3.600006,-30.830444c0.89798,-17.849701 2.496979,-20.846436 2.496979,-33.828232c0,-12.980728 -0.522003,-18.23172 -0.698975,-27.832657c3.123993,-7.369293 6.624969,-9.622498 8.998993,-8.924301c2.922974,0.698196 6.848999,0.743515 9.197998,10.547318c1.799011,10.547302 3.422974,18.411926 5.198975,38.13176c-1.800964,19.471603 -2.700989,36.509811 0.89801,41.377762c3.598999,4.867889 6.299988,4.056366 8.999023,-1.621948c2.698975,-5.679413 2.698975,-8.113892 6.297974,-17.849701c3.598999,-9.735809 3.374023,-16.11557 5.223022,-29.703827c-0.900024,-20.283142 0.177002,-29.523636 1.076965,-44.938858c0.899048,-15.415207 -0.098999,-15.865204 1.799011,-25.151016c1.624023,-8.789444 3.89801,-10.884003 11.697998,-9.735825c4.499023,4.867905 5.39801,17.038223 7.197998,27.585526c1.799011,10.547318 1.799011,9.735825 2.699036,29.207443c0.901001,19.471634 0.125977,27.24559 -1.674011,33.736496c-0.424988,7.234406 -2.02301,14.423523 -1.025024,17.377075c5.39801,-3.244904 5.39801,-8.924316 10.798035,-20.283127c5.39801,-11.35881 9.896973,-21.094635 11.697998,-34.075363c1.797974,-12.981812 6.598999,-17.736389 9.672974,-32.025009c7.199036,-13.792221 8.773987,-17.126709 13.721008,-17.466629c5.223022,3.380875 7.697998,6.423996 7.197998,17.038223c-2.698975,11.358795 -2.698975,17.038208 -7.197998,28.397018c-4.497986,11.357727 -3.599976,16.225632 -9.89801,28.395935c-3.822998,10.682205 -4.295959,14.310196 -6.297974,17.849716c8.997009,0.81041 8.872986,-2.412918 14.396973,-8.113892c9.098999,-15.619171 5.650024,-12.328949 8.997009,-17.038223c5,-9.419632 9.27301,-12.888992 13.497986,-11.357742c4.498047,6.489838 6.299011,8.112823 2.699036,15.415222c-3.598999,7.301331 -0.900024,2.433426 -6.298035,12.980743c-5.398987,10.547318 -10.796997,14.603714 -3.598999,13.793289c7.197998,-0.811493 8.097046,0 12.596008,-6.490891c4.5,-6.490906 0,-7.302399 9.89801,-11.35881c9.898987,-4.056412 16.197021,-11.35881 18.895996,-5.679413c2.700989,5.679413 3.598999,4.867905 -2.698975,12.981812c-6.298035,8.112823 -12.598022,10.547302 -9.897034,14.603729c2.699036,4.056396 9.897034,4.867889 15.296997,4.867889c5.39801,0 6.298035,0.811493 3.598999,8.924316c-2.700989,8.113892 -3.598999,8.113892 -4.498962,12.170288c-0.901001,4.056427 3.598999,7.301331 3.598999,7.301331c0,0 8.097961,-4.867889 1.797974,7.302399c-6.297974,12.16922 -9.896973,8.924316 -13.495972,14.603729c-3.598999,5.679413 -7.199036,11.358826 -1.801025,11.358826c5.400024,0 10.799988,-0.811523 9.900024,3.244904c-0.901001,4.056396 -8.999023,8.113892 -4.5,10.547302c4.5,2.434479 8.098999,-0.811493 11.697998,2.434479c3.598999,3.244934 0,8.924347 0,12.980713c0,4.056427 -0.900024,7.302429 0.899963,11.358826c1.799011,4.056396 5.39801,8.113892 2.699036,12.170319c-2.699036,4.056396 0.899963,4.867889 -6.298035,8.924316c-7.200012,4.056396 -11.697998,3.244904 -11.697998,7.302399c0,4.056396 -0.899963,3.244904 3.598999,6.489807c4.5,3.246002 9.89801,0.811523 6.298035,8.113922c-3.598999,7.3013 -2.697998,6.490875 -4.499023,12.981812c-1.799011,6.489807 0.900024,3.244873 -7.197998,18.660095c-8.098999,15.414154 -16.195984,26.774048 -24.294983,30.830444c-8.098022,4.055328 -6.298035,12.981812 -0.900024,14.603729c5.400024,1.622986 6.298035,8.925385 0.900024,19.471619c-5.398987,10.547333 -11.697021,24.340607 -13.496033,31.642975c-1.800964,7.300293 -3.598999,8.111755 -12.597961,17.038208c-8.997009,8.923279 -16.197998,17.036133 -24.294006,19.47168c-8.098999,2.433411 -8.999023,10.545166 -14.397034,14.602661c-5.399963,4.057434 -7.198975,6.490845 -18.896973,6.490845c-11.697021,0 -11.697021,-2.433411 -23.39502,0.811523c-11.697998,3.244934 -17.096008,6.490906 -17.995972,11.357727c-0.901001,4.868958 -4.5,7.302368 -11.698029,5.680481c-7.199005,-1.624084 -1.798981,3.244934 -10.798004,6.490906c-8.996979,3.244934 -6.297974,7.302368 -17.095001,6.489807c-10.797974,-0.811462 -16.197998,-8.113892 -18.896973,0c-2.699005,8.112854 -3.598999,14.60376 -15.297028,7.302429c-11.695984,-7.302429 -17.995972,-26.774048 -24.293976,-6.489868c-6.298004,20.281006 -6.298004,25.150024 0.899994,30.829407c7.199005,5.678345 8.997009,10.547302 25.195007,16.225647c16.194977,5.680481 16.194977,12.171387 27.892975,16.226685c11.698029,4.057495 12.598022,5.680481 30.594025,13.793274c17.995972,8.113953 22.495972,10.547302 33.292969,16.226746c10.798035,5.678345 13.497009,11.358765 16.196045,17.037109c2.700989,5.679443 14.396973,12.170349 9.898987,20.284241c-4.5,8.111755 -13.499023,3.244934 -13.499023,7.302429c0,4.055298 1.801025,7.300171 -1.797974,15.414124c-3.598999,8.112854 -2.699036,11.359863 -15.296997,14.604797c-12.598022,3.245972 -19.796997,4.866821 -26.095001,2.433411c-6.298004,-2.433411 -8.09903,7.302368 -14.397003,4.86792c-6.298004,-2.434509 -8.997009,-9.736938 -13.496002,-5.679443c-4.5,4.057495 3.598999,6.490967 -7.199005,8.924377c-10.796997,2.435486 -11.696991,-4.055359 -12.597992,1.622925c-0.900024,5.679443 2.698975,11.357788 -8.997009,5.679443c-11.697998,-5.679443 -8.098999,-17.038269 -17.097015,-8.924377c-8.996979,8.112854 -4.497986,17.848694 -20.694977,9.73584c-16.197998,-8.113831 -10.798004,-8.924316 -23.395996,-8.113831c-12.596008,0.811401 -12.596008,1.622925 -17.096008,-7.300293c-4.498993,-8.926514 4.5,-6.490906 -15.296997,-7.302429c-19.795013,-0.812561 -9.897003,10.547363 -22.496002,-4.868958c-12.596008,-15.415222 -15.295013,-30.829346 -20.694,-13.793335c-5.39801,17.038208 0,21.095703 -8.098999,25.964722c-8.097015,4.866882 -49.489014,3.244934 -49.489014,3.244934c0,0 -0.899994,18.660156 -4.498993,21.905029c-3.598999,3.244873 -12.596008,-3.244873 -20.695007,3.244873c-8.098999,6.490967 -2.69899,10.548462 -9.896988,16.226746c-7.199005,5.679382 -21.597,6.490906 -21.597,6.490906c0,0 9.898987,-7.302429 12.597992,-13.793274c2.699005,-6.490906 6.298004,-17.847595 6.298004,-17.847595c0,0 -14.397003,4.866882 -20.695007,5.678345c-6.297989,0.811462 -16.196991,-0.811462 -16.196991,-0.811462l2.700989,18.660095c0,0 -17.097992,0 -17.097992,-6.490906c0,-6.490906 5.399994,-24.338501 9.899002,-26.771912c4.498001,-2.435486 10.798004,-1.624084 10.798004,-1.624084c0,0 -1.80101,-8.111694 2.69899,-9.735779c4.499008,-1.621887 7.197998,0 14.395996,0c7.199005,0 39.59201,-8.924316 39.59201,-8.924316c0,0 -0.901001,-21.094604 2.69899,-30.018921c3.599014,-8.924377 20.695999,-34.076416 12.598007,-38.133911c-8.098999,-4.055359 -14.397003,-0.809387 -18.897003,3.245972c-4.498993,4.056458 -12.595993,16.227783 -29.694,19.472717c-17.095001,3.246033 -30.591995,4.86792 -30.591995,4.86792c0,0 -3.598999,1.622925 -3.598999,8.113892c0,6.490906 6.298004,12.980713 -2.701004,21.093506c-8.996994,8.113953 -16.194992,15.416321 -26.091995,11.358826c-9.900009,-4.056396 -11.697998,-8.925415 -11.697998,-8.925415c0,0 7.197998,4.056458 18.895996,1.623047c11.695999,-2.433411 7.197998,-22.716553 6.298004,-26.774048c-0.900009,-4.056396 -9.897003,-8.111694 -15.297012,-4.056396c-5.397995,4.056396 -12.597992,14.604797 -8.098999,18.661194c4.5,4.055298 -12.595993,-8.925415 -11.697998,-14.604797c0.901001,-5.678284 3.598999,-9.735779 3.598999,-9.735779c0,0 -11.694992,0 -18.893997,-0.811523c-7.197998,-0.810425 -12.598,-4.055359 -12.598,0.811523c0,4.868896 3.598999,26.773987 -4.499496,12.98175c-8.096703,-13.793274 -11.6959,-17.038208 -3.599205,-24.339539z" fill="#086608" id="path10416"/>
 </g>
</svg>